<svg viewBox="120 150 400 50" xmlns="http://www.w3.org/2000/svg" xmlns:xlink="http://www.w3.org/1999/xlink"><rect x="0" y="0" opacity="1" fill="#0d1117" data-fill-palette-color="background" id="background"></rect><g id="tight-bounds" transform="matrix(1,0,0,1,122.24000000000001,145.37861303647819)"><svg viewBox="0 0 395.52 109.24277392704363" height="109.24277392704363" width="395.52"><g><svg viewBox="0 0 395.52 109.24277392704363" height="109.24277392704363" width="395.52"><g transform="matrix(1,0,0,1,0,79.51568406005974)"><svg viewBox="0 0 395.52 29.72708986698388" height="29.72708986698388" width="395.52"><g><svg viewBox="0 0 395.52 29.72708986698388" height="29.72708986698388" width="395.52"><g><svg viewBox="0 0 395.52 29.72708986698388" height="29.72708986698388" width="395.52"><g transform="matrix(1,0,0,1,0,0)"><svg width="395.52" viewBox="3.6500000953674316 -34.349998474121094 462.30999755859375 34.75" height="29.72708986698388" data-palette-color="#ffffff"><path d="M8.8-14.1L8.8 0 3.65 0 3.65-33.7 9.75-33.7 18.05-19.6Q20.35-15.65 22.23-12.3 24.1-8.95 24.8-7.6L24.8-7.6 25.5-6.2Q25.2-10.75 25.2-19.55L25.2-19.55 25.2-33.7 30.35-33.7 30.35 0 24.25 0 15.9-14.05Q13.65-17.85 11.78-21.23 9.9-24.6 9.15-26.1L9.15-26.1 8.4-27.55Q8.8-22.55 8.8-14.1L8.8-14.1ZM57.1-4.3L57.1 0 37.65 0 37.65-33.7 56.85-33.7 56.85-29.4 42.8-29.4 42.8-19 55.25-19 55.25-14.7 42.8-14.7 42.8-4.3 57.1-4.3ZM83.6-33.7L83.6-29.4 74.75-29.4 74.75 0 69.6 0 69.6-29.4 60.8-29.4 60.8-33.7 83.6-33.7ZM107.29-4.55L107.29 0 88.34 0 88.34-33.7 93.49-33.7 93.49-4.55 107.29-4.55ZM117.84-33.7L117.84 0 112.74 0 112.74-33.7 117.84-33.7ZM142.94-18.35L142.94-14.05 130.69-14.05 130.69 0 125.54 0 125.54-33.7 144.64-33.7 144.64-29.4 130.69-29.4 130.69-18.35 142.94-18.35ZM164.29-12.55L164.29 0 159.14 0 159.14-12.55 147.74-33.7 153.64-33.7 156.04-28.75Q158.34-24.1 159.74-21.1 161.14-18.1 161.39-17.4L161.39-17.4 161.69-16.75Q162.14-18.25 167.49-28.75L167.49-28.75 169.94-33.7 175.84-33.7 164.29-12.55ZM209.68-18.35L209.68-14.05 197.43-14.05 197.43 0 192.28 0 192.28-33.7 211.38-33.7 211.38-29.4 197.43-29.4 197.43-18.35 209.68-18.35ZM222.48-33.7L222.48 0 217.38 0 217.38-33.7 222.48-33.7ZM249.63-4.3L249.63 0 230.18 0 230.18-33.7 249.38-33.7 249.38-29.4 235.33-29.4 235.33-19 247.78-19 247.78-14.7 235.33-14.7 235.33-4.3 249.63-4.3ZM274.82-4.55L274.82 0 255.87 0 255.87-33.7 261.02-33.7 261.02-4.55 274.82-4.55ZM290.47 0L290.47 0 279.87 0 279.87-33.7 290.37-33.7Q297.87-33.7 302.67-29.05 307.47-24.4 307.47-17.2L307.47-17.2Q307.47-9.7 302.95-4.85 298.42 0 290.47 0ZM290.27-29.3L290.27-29.3 285.12-29.3 285.12-4.35 290.42-4.35Q296.17-4.35 299.17-7.95 302.17-11.55 302.17-17.2L302.17-17.2Q302.17-22.4 298.92-25.85 295.67-29.3 290.27-29.3ZM333.17-9.2L333.17-9.2Q333.17-4.75 330.02-2.2 326.87 0.35 321.87 0.35L321.87 0.35Q316.32 0.35 312.67-1.8L312.67-1.8 312.67-7.15Q316.62-4.2 321.82-4.2L321.82-4.2Q324.57-4.2 326.17-5.48 327.77-6.75 327.77-9L327.77-9Q327.77-10.35 326.82-11.48 325.87-12.6 324.77-13.18 323.67-13.75 321.47-14.75L321.47-14.75Q320.17-15.35 319.64-15.6 319.12-15.85 317.92-16.5 316.72-17.15 316.14-17.6 315.57-18.05 314.72-18.85 313.87-19.65 313.49-20.45 313.12-21.25 312.79-22.33 312.47-23.4 312.47-24.65L312.47-24.65Q312.47-28.95 315.59-31.45 318.72-33.95 323.67-33.95L323.67-33.95Q328.22-33.95 331.42-32.35L331.42-32.35 331.42-27.25Q328.07-29.35 323.82-29.35L323.82-29.35Q321.07-29.35 319.49-28.13 317.92-26.9 317.92-24.9 317.92-22.9 319.47-21.7 321.02-20.5 324.22-19.1L324.22-19.1Q326.32-18.2 327.49-17.55 328.67-16.9 330.19-15.73 331.72-14.55 332.44-12.93 333.17-11.3 333.17-9.2ZM371.16-33.7L371.16-29.4 362.31-29.4 362.31 0 357.16 0 357.16-29.4 348.36-29.4 348.36-33.7 371.16-33.7ZM401.36-29.63Q405.51-24.9 405.51-17 405.51-9.1 401.34-4.35 397.16 0.4 390.06 0.4L390.06 0.4Q383.01 0.4 378.79-4.35 374.56-9.1 374.56-17L374.56-17Q374.56-24.85 378.76-29.6 382.96-34.35 390.01-34.35L390.01-34.35Q397.21-34.35 401.36-29.63ZM382.64-26.18Q379.96-22.8 379.96-17 379.96-11.2 382.71-7.8 385.46-4.4 390.06-4.4L390.06-4.4Q394.81-4.4 397.46-7.75 400.11-11.1 400.11-17L400.11-17Q400.11-22.85 397.44-26.2 394.76-29.55 390.01-29.55L390.01-29.55Q385.31-29.55 382.64-26.18ZM436.91-29.63Q441.06-24.9 441.06-17 441.06-9.1 436.88-4.35 432.71 0.4 425.61 0.4L425.61 0.4Q418.56 0.4 414.33-4.35 410.11-9.1 410.11-17L410.11-17Q410.11-24.85 414.31-29.6 418.51-34.35 425.56-34.35L425.56-34.35Q432.76-34.35 436.91-29.63ZM418.18-26.18Q415.51-22.8 415.51-17 415.51-11.2 418.26-7.8 421.01-4.4 425.61-4.4L425.61-4.4Q430.36-4.4 433.01-7.75 435.66-11.1 435.66-17L435.66-17Q435.66-22.85 432.98-26.2 430.31-29.55 425.56-29.55L425.56-29.55Q420.86-29.55 418.18-26.18ZM465.96-4.55L465.96 0 447.01 0 447.01-33.7 452.16-33.7 452.16-4.55 465.96-4.55Z" opacity="1" transform="matrix(1,0,0,1,0,0)" fill="#ffffff" class="undefined-text-0" data-fill-palette-color="primary" id="text-0"></path></svg></g></svg></g></svg></g></svg></g><g transform="matrix(1,0,0,1,165.02001043740822,0)"><svg viewBox="0 0 65.47997912518356 65.47997912518356" height="65.47997912518356" width="65.47997912518356"><g><svg></svg></g><g id="icon-0"><svg viewBox="0 0 65.47997912518356 65.47997912518356" height="65.47997912518356" width="65.47997912518356"><g><path d="M0 32.74c0-18.082 14.658-32.74 32.74-32.74 18.082 0 32.74 14.658 32.74 32.74 0 18.082-14.658 32.74-32.74 32.74-18.082 0-32.74-14.658-32.74-32.74zM32.74 62.799c16.601 0 30.059-13.458 30.059-30.059 0-16.601-13.458-30.059-30.059-30.059-16.601 0-30.059 13.458-30.059 30.059 0 16.601 13.458 30.059 30.059 30.059z" data-fill-palette-color="tertiary" fill="#ffffff" stroke="transparent"></path></g><g transform="matrix(1,0,0,1,17.956169340290106,20.126900284832082)"><svg viewBox="0 0 29.56764044460335 25.226178555519393" height="25.226178555519393" width="29.56764044460335"><g><svg xmlns="http://www.w3.org/2000/svg" xmlns:xlink="http://www.w3.org/1999/xlink" version="1.1" x="0" y="0" viewBox="94.30000305175781 118 323.5 276" style="enable-background:new 0 0 512 512;" xml:space="preserve" height="25.226178555519393" width="29.56764044460335" class="icon-a-0" data-fill-palette-color="accent" id="a-0"><g fill="#00c6b9" data-fill-palette-color="accent"><path d="M256 199.8c-28.7 0-51.9 23.2-51.9 51.9s23.2 51.9 51.9 51.9c28.7-0.1 51.9-23.3 51.9-51.9C308 223 284.8 199.8 256 199.8z" fill="#00c6b9" data-fill-palette-color="accent"></path><path d="M336.9 118H175.1L94.3 256l80.8 138H337l80.8-138L336.9 118zM328 251.7c0 39.7-32.2 71.9-71.9 71.9s-71.9-32.2-71.9-71.9 32.2-71.9 71.9-71.9S327.8 212 328 251.7C328 251.7 328 251.7 328 251.7z" fill="#00c6b9" data-fill-palette-color="accent"></path></g></svg></g></svg></g></svg></g></svg></g><g></g></svg></g><defs></defs></svg><rect width="395.52" height="109.24277392704363" fill="none" stroke="none" visibility="hidden"></rect></g></svg>